# xmcd CD database file
#
# Track frame offsets:
#	150
#	23490
#	40610
#	58950
#	75245
#	101440
#	119600
#	141330
#	156527
#	177362
#	194257
#	219312
#	234837
#
# Disc length: 3422 seconds
#
# Revision: 2
# Processed by: cddbd v1.5.2PL0 Copyright (c) Steve Scherf et al.
# Submitted via: CDex 1.51
#
DISCID=a80d5c0d
DTITLE=Paul Millns - Against The Tide
DYEAR=1900
DGENRE=
TTITLE0=Drive She Said
TTITLE1=When Love Comes Calling
TTITLE2=Unwelcome Neighbour
TTITLE3=Rise And Shine
TTITLE4=Don't Wait Too Long
TTITLE5=No-one On The Street
TTITLE6=God Save The Self-doubter
TTITLE7=She Likes The Rain
TTITLE8=Watching The Dinosaurs
TTITLE9=Highway Eyes
TTITLE10=Dark Water
TTITLE11=Back On Your Bike Boy
TTITLE12=The Meaning Of The Word
EXTD=
EXTT0=
EXTT1=
EXTT2=
EXTT3=
EXTT4=
EXTT5=
EXTT6=
EXTT7=
EXTT8=
EXTT9=
EXTT10=
EXTT11=
EXTT12=
PLAYORDER=
